<svg width="24" height="25" viewBox="0 0 24 25" fill="none" xmlns="http://www.w3.org/2000/svg">
<path d="M11.25 5.50586V10.0059C11.25 10.4037 11.092 10.7852 10.8107 11.0665C10.5294 11.3478 10.1478 11.5059 9.75 11.5059H5.25C4.85218 11.5059 4.47064 11.3478 4.18934 11.0665C3.90804 10.7852 3.75 10.4037 3.75 10.0059V5.50586C3.75 5.10803 3.90804 4.7265 4.18934 4.4452C4.47064 4.16389 4.85218 4.00586 5.25 4.00586H9.75C10.1478 4.00586 10.5294 4.16389 10.8107 4.4452C11.092 4.7265 11.25 5.10803 11.25 5.50586ZM18.75 4.00586H14.25C13.8522 4.00586 13.4706 4.16389 13.1893 4.4452C12.908 4.7265 12.75 5.10803 12.75 5.50586V10.0059C12.75 10.4037 12.908 10.7852 13.1893 11.0665C13.4706 11.3478 13.8522 11.5059 14.25 11.5059H18.75C19.1478 11.5059 19.5294 11.3478 19.8107 11.0665C20.092 10.7852 20.25 10.4037 20.25 10.0059V5.50586C20.25 5.10803 20.092 4.7265 19.8107 4.4452C19.5294 4.16389 19.1478 4.00586 18.75 4.00586ZM9.75 13.0059H5.25C4.85218 13.0059 4.47064 13.1639 4.18934 13.4452C3.90804 13.7265 3.75 14.108 3.75 14.5059V19.0059C3.75 19.4037 3.90804 19.7852 4.18934 20.0665C4.47064 20.3478 4.85218 20.5059 5.25 20.5059H9.75C10.1478 20.5059 10.5294 20.3478 10.8107 20.0665C11.092 19.7852 11.25 19.4037 11.25 19.0059V14.5059C11.25 14.108 11.092 13.7265 10.8107 13.4452C10.5294 13.1639 10.1478 13.0059 9.75 13.0059ZM18.75 13.0059H14.25C13.8522 13.0059 13.4706 13.1639 13.1893 13.4452C12.908 13.7265 12.75 14.108 12.75 14.5059V19.0059C12.75 19.4037 12.908 19.7852 13.1893 20.0665C13.4706 20.3478 13.8522 20.5059 14.25 20.5059H18.75C19.1478 20.5059 19.5294 20.3478 19.8107 20.0665C20.092 19.7852 20.25 19.4037 20.25 19.0059V14.5059C20.25 14.108 20.092 13.7265 19.8107 13.4452C19.5294 13.1639 19.1478 13.0059 18.75 13.0059Z" fill="#d20000"/>
</svg>
